<?xml version="1.0" encoding="utf-8"?>
<!-- Generator: Adobe Illustrator 16.0.4, SVG Export Plug-In . SVG Version: 6.00 Build 0)  -->
<!DOCTYPE svg PUBLIC "-//W3C//DTD SVG 1.1//EN" "http://www.w3.org/Graphics/SVG/1.1/DTD/svg11.dtd">
<svg version="1.1" id="Layer_1" xmlns="http://www.w3.org/2000/svg" xmlns:xlink="http://www.w3.org/1999/xlink" x="0px" y="0px"
	 width="291.218px" height="79.886px" viewBox="0 0 291.218 79.886" enable-background="new 0 0 291.218 79.886"
	 xml:space="preserve">
<g>
	<path fill="#00285E" d="M75.183,42.732h-1.296V31.177h-4.266v-1.188h9.828v1.188h-4.266V42.732z"/>
	<path fill="#00285E" d="M80.835,29.124h1.188v6.534h0.036c0.132-0.228,0.3-0.438,0.504-0.63c0.204-0.191,0.432-0.356,0.684-0.495
		c0.252-0.138,0.519-0.245,0.801-0.324c0.282-0.077,0.561-0.116,0.837-0.116c1.08,0,1.878,0.285,2.394,0.854
		c0.516,0.57,0.774,1.384,0.774,2.439v5.346h-1.188V38.07c0-0.936-0.162-1.652-0.486-2.151c-0.324-0.497-0.924-0.746-1.8-0.746
		c-0.06,0-0.228,0.023-0.504,0.071c-0.276,0.049-0.567,0.181-0.873,0.396s-0.579,0.54-0.819,0.972c-0.24,0.432-0.36,1.032-0.36,1.8
		v4.32h-1.188V29.124z"/>
	<path fill="#00285E" d="M91.509,38.845c0.036,0.42,0.138,0.815,0.306,1.188c0.168,0.372,0.39,0.693,0.666,0.963
		c0.276,0.271,0.594,0.483,0.954,0.64c0.36,0.155,0.75,0.233,1.17,0.233c0.636,0,1.185-0.146,1.647-0.44
		c0.461-0.294,0.812-0.633,1.053-1.018l0.918,0.756c-0.504,0.637-1.059,1.093-1.665,1.368c-0.606,0.276-1.257,0.414-1.953,0.414
		c-0.625,0-1.204-0.111-1.737-0.333c-0.534-0.222-0.993-0.531-1.377-0.927c-0.384-0.396-0.687-0.864-0.909-1.404
		s-0.333-1.128-0.333-1.764s0.108-1.224,0.324-1.764s0.516-1.009,0.9-1.404c0.384-0.396,0.834-0.705,1.35-0.927
		c0.516-0.223,1.074-0.333,1.674-0.333c0.636,0,1.206,0.114,1.71,0.342c0.504,0.228,0.927,0.531,1.269,0.909
		c0.342,0.378,0.603,0.821,0.783,1.332c0.18,0.51,0.27,1.053,0.27,1.629v0.54H91.509z M97.233,37.872c0-0.804-0.24-1.454-0.72-1.953
		c-0.48-0.497-1.152-0.746-2.016-0.746c-0.384,0-0.756,0.074-1.116,0.225S92.706,35.748,92.436,36s-0.486,0.54-0.648,0.864
		c-0.162,0.324-0.243,0.66-0.243,1.008H97.233z"/>
	<path fill="#00285E" d="M114.891,37.98c0,0.528-0.063,1.089-0.189,1.683c-0.126,0.595-0.363,1.144-0.711,1.647
		c-0.348,0.504-0.825,0.921-1.431,1.251s-1.383,0.495-2.331,0.495c-0.96,0-1.74-0.165-2.34-0.495s-1.074-0.747-1.422-1.251
		c-0.348-0.504-0.585-1.053-0.711-1.647c-0.126-0.594-0.189-1.154-0.189-1.683v-7.992h1.296v7.848c0,0.612,0.06,1.138,0.18,1.575
		c0.12,0.438,0.279,0.808,0.477,1.107c0.198,0.3,0.42,0.537,0.666,0.711s0.492,0.309,0.738,0.405
		c0.246,0.096,0.483,0.159,0.711,0.188c0.228,0.03,0.426,0.045,0.594,0.045c0.156,0,0.351-0.015,0.585-0.045
		c0.234-0.029,0.474-0.093,0.72-0.188c0.246-0.097,0.492-0.231,0.738-0.405s0.468-0.411,0.666-0.711
		c0.198-0.3,0.357-0.669,0.477-1.107c0.12-0.438,0.18-0.963,0.18-1.575v-7.848h1.296V37.98z"/>
	<path fill="#00285E" d="M118.671,34.309c0.024,0.228,0.039,0.453,0.045,0.675c0.006,0.223,0.009,0.447,0.009,0.675h0.036
		c0.132-0.228,0.3-0.438,0.504-0.63c0.204-0.191,0.432-0.356,0.684-0.495c0.252-0.138,0.519-0.245,0.801-0.324
		c0.282-0.077,0.561-0.116,0.837-0.116c1.08,0,1.878,0.285,2.394,0.854c0.516,0.57,0.774,1.384,0.774,2.439v5.346h-1.188V38.07
		c0-0.936-0.162-1.652-0.486-2.151c-0.324-0.497-0.924-0.746-1.8-0.746c-0.06,0-0.228,0.023-0.504,0.071
		c-0.276,0.049-0.567,0.181-0.873,0.396s-0.579,0.54-0.819,0.972c-0.24,0.432-0.36,1.032-0.36,1.8v4.32h-1.188v-6.57
		c0-0.228-0.009-0.516-0.027-0.863c-0.018-0.349-0.039-0.678-0.063-0.99H118.671z"/>
	<path fill="#00285E" d="M129.111,31.068c0,0.252-0.09,0.459-0.27,0.621c-0.18,0.162-0.378,0.243-0.594,0.243
		c-0.216,0-0.414-0.081-0.594-0.243c-0.18-0.162-0.27-0.369-0.27-0.621s0.09-0.459,0.27-0.621c0.18-0.162,0.378-0.243,0.594-0.243
		c0.216,0,0.414,0.081,0.594,0.243C129.021,30.609,129.111,30.816,129.111,31.068z M128.841,42.732h-1.188v-8.424h1.188V42.732z"/>
	<path fill="#00285E" d="M135.249,42.732h-1.332l-3.42-8.424h1.404l2.7,7.092h0.036l2.683-7.092h1.35L135.249,42.732z"/>
	<path fill="#00285E" d="M140.882,38.845c0.037,0.42,0.139,0.815,0.307,1.188s0.39,0.693,0.666,0.963
		c0.275,0.271,0.594,0.483,0.953,0.64c0.361,0.155,0.75,0.233,1.171,0.233c0.636,0,1.185-0.146,1.647-0.44
		c0.461-0.294,0.812-0.633,1.053-1.018l0.918,0.756c-0.504,0.637-1.06,1.093-1.666,1.368c-0.605,0.276-1.256,0.414-1.952,0.414
		c-0.624,0-1.204-0.111-1.737-0.333c-0.534-0.222-0.993-0.531-1.377-0.927c-0.385-0.396-0.688-0.864-0.909-1.404
		s-0.333-1.128-0.333-1.764s0.108-1.224,0.324-1.764s0.516-1.009,0.9-1.404c0.383-0.396,0.834-0.705,1.35-0.927
		c0.516-0.223,1.074-0.333,1.674-0.333c0.637,0,1.206,0.114,1.71,0.342c0.505,0.228,0.927,0.531,1.269,0.909
		c0.343,0.378,0.604,0.821,0.783,1.332c0.181,0.51,0.271,1.053,0.271,1.629v0.54H140.882z M146.606,37.872
		c0-0.804-0.24-1.454-0.721-1.953c-0.479-0.497-1.151-0.746-2.016-0.746c-0.384,0-0.756,0.074-1.115,0.225
		c-0.36,0.15-0.676,0.351-0.945,0.603c-0.271,0.252-0.486,0.54-0.648,0.864s-0.242,0.66-0.242,1.008H146.606z"/>
	<path fill="#00285E" d="M150.026,36.937c0-0.372-0.009-0.75-0.027-1.134c-0.018-0.384-0.033-0.882-0.045-1.494h1.17v1.565h0.037
		c0.083-0.228,0.203-0.446,0.359-0.656s0.345-0.399,0.566-0.567c0.223-0.168,0.48-0.303,0.774-0.405
		c0.294-0.102,0.627-0.152,0.999-0.152c0.336,0,0.631,0.036,0.883,0.107l-0.234,1.17c-0.156-0.06-0.385-0.09-0.684-0.09
		c-0.457,0-0.847,0.087-1.171,0.261c-0.323,0.175-0.594,0.396-0.81,0.666c-0.217,0.271-0.375,0.562-0.477,0.873
		c-0.103,0.312-0.154,0.612-0.154,0.9v4.752h-1.188V36.937z"/>
	<path fill="#00285E" d="M160.178,36.307c-0.18-0.348-0.42-0.624-0.72-0.828s-0.666-0.306-1.098-0.306
		c-0.204,0-0.411,0.023-0.621,0.071c-0.21,0.049-0.399,0.123-0.567,0.226c-0.168,0.102-0.303,0.23-0.405,0.387
		c-0.102,0.156-0.152,0.349-0.152,0.576c0,0.396,0.138,0.684,0.414,0.864c0.275,0.18,0.689,0.336,1.241,0.468l1.206,0.288
		c0.588,0.132,1.077,0.398,1.468,0.801c0.39,0.402,0.585,0.903,0.585,1.503c0,0.456-0.094,0.849-0.279,1.179
		c-0.187,0.33-0.432,0.601-0.738,0.811c-0.306,0.21-0.657,0.363-1.053,0.459c-0.396,0.096-0.798,0.144-1.206,0.144
		c-0.648,0-1.251-0.123-1.809-0.369c-0.559-0.245-1.035-0.669-1.431-1.269l1.025-0.702c0.24,0.384,0.543,0.69,0.909,0.918
		c0.365,0.229,0.801,0.342,1.305,0.342c0.24,0,0.479-0.026,0.72-0.081c0.24-0.054,0.453-0.138,0.64-0.252
		c0.186-0.113,0.336-0.261,0.449-0.44c0.114-0.181,0.172-0.39,0.172-0.63c0-0.42-0.156-0.724-0.469-0.909
		c-0.312-0.187-0.689-0.333-1.134-0.441l-1.152-0.27c-0.144-0.036-0.339-0.097-0.585-0.181c-0.246-0.083-0.485-0.209-0.72-0.378
		c-0.234-0.168-0.436-0.387-0.604-0.656c-0.168-0.271-0.252-0.604-0.252-0.999c0-0.433,0.088-0.811,0.262-1.135
		c0.174-0.323,0.408-0.588,0.701-0.792c0.295-0.203,0.628-0.356,1-0.459c0.371-0.102,0.756-0.152,1.151-0.152
		c0.588,0,1.135,0.114,1.639,0.342s0.894,0.618,1.17,1.17L160.178,36.307z"/>
	<path fill="#00285E" d="M164.931,31.068c0,0.252-0.091,0.459-0.271,0.621s-0.378,0.243-0.594,0.243s-0.414-0.081-0.594-0.243
		c-0.181-0.162-0.271-0.369-0.271-0.621s0.09-0.459,0.271-0.621c0.18-0.162,0.378-0.243,0.594-0.243s0.414,0.081,0.594,0.243
		S164.931,30.816,164.931,31.068z M164.66,42.732h-1.188v-8.424h1.188V42.732z"/>
	<path fill="#00285E" d="M171.716,35.389h-2.431v4.968c0,0.312,0.03,0.567,0.09,0.765c0.061,0.198,0.145,0.352,0.253,0.459
		c0.107,0.108,0.236,0.184,0.387,0.226c0.149,0.042,0.314,0.062,0.495,0.062c0.204,0,0.414-0.029,0.63-0.09
		c0.216-0.06,0.414-0.138,0.594-0.234l0.054,1.099c-0.443,0.204-0.978,0.306-1.602,0.306c-0.229,0-0.465-0.03-0.711-0.09
		c-0.246-0.061-0.472-0.174-0.675-0.342c-0.204-0.168-0.372-0.396-0.504-0.685c-0.133-0.288-0.198-0.666-0.198-1.134v-5.31h-1.782
		v-1.08h1.782v-2.376h1.188v2.376h2.431V35.389z"/>
	<path fill="#00285E" d="M176.306,41.274l2.574-6.966h1.44l-4.212,10.62c-0.253,0.647-0.573,1.163-0.964,1.548
		c-0.39,0.384-0.951,0.576-1.683,0.576c-0.18,0-0.363-0.007-0.549-0.019c-0.187-0.012-0.369-0.048-0.549-0.107l0.126-1.152
		c0.252,0.132,0.552,0.198,0.899,0.198c0.42,0,0.75-0.133,0.99-0.396s0.45-0.636,0.63-1.116l0.612-1.619l-3.456-8.532h1.494
		L176.306,41.274z"/>
	<path fill="#00285E" d="M195.043,38.521c0,0.636-0.11,1.224-0.333,1.764c-0.222,0.54-0.53,1.008-0.927,1.404
		c-0.396,0.396-0.867,0.705-1.413,0.927s-1.148,0.333-1.809,0.333c-0.648,0-1.245-0.111-1.791-0.333s-1.018-0.531-1.413-0.927
		c-0.396-0.396-0.705-0.864-0.927-1.404c-0.223-0.54-0.333-1.128-0.333-1.764s0.11-1.224,0.333-1.764
		c0.222-0.54,0.53-1.009,0.927-1.404c0.396-0.396,0.867-0.705,1.413-0.927c0.546-0.223,1.143-0.333,1.791-0.333
		c0.66,0,1.263,0.11,1.809,0.333c0.546,0.222,1.018,0.53,1.413,0.927c0.396,0.396,0.705,0.864,0.927,1.404
		C194.933,37.297,195.043,37.885,195.043,38.521z M193.747,38.521c0-0.468-0.075-0.906-0.225-1.314
		c-0.15-0.407-0.363-0.762-0.639-1.062c-0.276-0.3-0.609-0.537-0.999-0.711c-0.391-0.174-0.831-0.261-1.323-0.261
		s-0.934,0.087-1.323,0.261s-0.72,0.411-0.99,0.711c-0.27,0.3-0.479,0.654-0.63,1.062c-0.15,0.408-0.225,0.847-0.225,1.314
		s0.074,0.906,0.225,1.313c0.15,0.408,0.36,0.763,0.63,1.062c0.271,0.3,0.601,0.537,0.99,0.711s0.831,0.261,1.323,0.261
		s0.933-0.087,1.323-0.261c0.39-0.174,0.723-0.411,0.999-0.711c0.275-0.3,0.488-0.654,0.639-1.062
		C193.672,39.427,193.747,38.988,193.747,38.521z"/>
	<path fill="#00285E" d="M200.965,35.389h-1.998v7.344h-1.188v-7.344h-1.782v-1.08h1.782v-2.304c0-1.116,0.258-1.911,0.773-2.386
		c0.517-0.474,1.2-0.711,2.053-0.711c0.168,0,0.339,0.013,0.513,0.036c0.174,0.024,0.345,0.054,0.513,0.09l-0.216,1.08
		c-0.144-0.036-0.294-0.065-0.45-0.09c-0.156-0.023-0.312-0.036-0.468-0.036c-0.324,0-0.588,0.054-0.792,0.162
		s-0.36,0.261-0.468,0.459c-0.108,0.198-0.181,0.43-0.216,0.693c-0.036,0.264-0.055,0.546-0.055,0.846v2.16h1.998V35.389z"/>
	<path fill="#00285E" d="M207.265,42.732h-1.512l5.544-12.744h1.26l5.544,12.744h-1.512l-1.404-3.348h-6.516L207.265,42.732z
		 M209.155,38.196h5.525l-2.754-6.696L209.155,38.196z"/>
	<path fill="#00285E" d="M220.424,38.106l3.978-3.798h1.782l-4.194,3.852l4.645,4.572h-1.836l-4.374-4.428v4.428h-1.188V29.124
		h1.188V38.106z"/>
	<path fill="#00285E" d="M227.856,36.937c0-0.372-0.009-0.75-0.027-1.134c-0.018-0.384-0.033-0.882-0.045-1.494h1.17v1.565h0.036
		c0.084-0.228,0.204-0.446,0.36-0.656s0.345-0.399,0.567-0.567c0.222-0.168,0.479-0.303,0.773-0.405
		c0.294-0.102,0.627-0.152,0.999-0.152c0.336,0,0.63,0.036,0.882,0.107l-0.233,1.17c-0.156-0.06-0.385-0.09-0.685-0.09
		c-0.456,0-0.846,0.087-1.17,0.261c-0.324,0.175-0.594,0.396-0.81,0.666c-0.216,0.271-0.375,0.562-0.478,0.873
		c-0.102,0.312-0.152,0.612-0.152,0.9v4.752h-1.188V36.937z"/>
	<path fill="#00285E" d="M241.734,38.521c0,0.636-0.11,1.224-0.333,1.764c-0.222,0.54-0.53,1.008-0.927,1.404
		c-0.396,0.396-0.867,0.705-1.413,0.927s-1.148,0.333-1.809,0.333c-0.648,0-1.245-0.111-1.791-0.333s-1.018-0.531-1.413-0.927
		c-0.396-0.396-0.705-0.864-0.927-1.404c-0.223-0.54-0.333-1.128-0.333-1.764s0.11-1.224,0.333-1.764
		c0.222-0.54,0.53-1.009,0.927-1.404c0.396-0.396,0.867-0.705,1.413-0.927c0.546-0.223,1.143-0.333,1.791-0.333
		c0.66,0,1.263,0.11,1.809,0.333c0.546,0.222,1.018,0.53,1.413,0.927c0.396,0.396,0.705,0.864,0.927,1.404
		C241.624,37.297,241.734,37.885,241.734,38.521z M240.438,38.521c0-0.468-0.075-0.906-0.225-1.314
		c-0.15-0.407-0.363-0.762-0.639-1.062c-0.276-0.3-0.609-0.537-0.999-0.711c-0.391-0.174-0.831-0.261-1.323-0.261
		s-0.934,0.087-1.323,0.261s-0.72,0.411-0.99,0.711c-0.27,0.3-0.479,0.654-0.63,1.062c-0.15,0.408-0.225,0.847-0.225,1.314
		s0.074,0.906,0.225,1.313c0.15,0.408,0.36,0.763,0.63,1.062c0.271,0.3,0.601,0.537,0.99,0.711s0.831,0.261,1.323,0.261
		s0.933-0.087,1.323-0.261c0.39-0.174,0.723-0.411,0.999-0.711c0.275-0.3,0.488-0.654,0.639-1.062
		C240.363,39.427,240.438,38.988,240.438,38.521z"/>
	<path fill="#00285E" d="M244.866,34.309c0.024,0.228,0.039,0.453,0.045,0.675c0.006,0.223,0.01,0.447,0.01,0.675h0.035
		c0.133-0.228,0.3-0.438,0.505-0.63c0.203-0.191,0.432-0.356,0.684-0.495c0.252-0.138,0.519-0.245,0.801-0.324
		c0.282-0.077,0.561-0.116,0.837-0.116c1.08,0,1.878,0.285,2.395,0.854c0.516,0.57,0.773,1.384,0.773,2.439v5.346h-1.188V38.07
		c0-0.936-0.162-1.652-0.486-2.151c-0.324-0.497-0.924-0.746-1.8-0.746c-0.061,0-0.229,0.023-0.504,0.071
		c-0.276,0.049-0.567,0.181-0.873,0.396s-0.579,0.54-0.819,0.972s-0.359,1.032-0.359,1.8v4.32h-1.188v-6.57
		c0-0.228-0.009-0.516-0.027-0.863c-0.018-0.349-0.039-0.678-0.062-0.99H244.866z"/>
</g>
<polyline fill="#00285E" points="54.675,0 0,0 0,79.886 54.675,79.886 "/>
<g>
	<defs>
		<rect id="SVGID_1_" width="54.675" height="79.886"/>
	</defs>
	<clipPath id="SVGID_2_">
		<use xlink:href="#SVGID_1_"  overflow="visible"/>
	</clipPath>
	<path clip-path="url(#SVGID_2_)" fill="#FFFFFF" d="M44.562,71.212c-0.9-0.242-1.688-1.13-2.773-3.898l-9.867-23.72
		c6.689-1.66,8.539-6.784,8.421-12.758V12.544c0.079-3.55,1.727-4.084,5.192-4.332V7.408H33.918v0.804
		c3.617,0.214,5.153,0.715,5.203,4.332v18.292c0.057,5.136-1.867,10.434-7.576,11.852l-3.139-7.549
		c-1.226,1.361-3.083,2.543-5.04,3.517l1.31,2.446l-0.545,1.384c-4.917-1.524-5.783-5.766-5.67-8.77V12.544
		c-0.141-2.83,1.417-4.332,5.355-4.332V7.408H8.167v0.804c3.679-0.011,4.618,0.737,4.562,4.332v19.755
		c-0.023,6.215,2.694,10.767,10.805,11.683l-9.292,23.468c-1.783,3.505-3.667,4.135-5.248,4.229v0.793h11.008v-0.793
		c-3.932,0.012-4.764-2.024-4.404-3.932c0,0,0.135-1.063,0.781-2.835c0.833-2.261,2.127-5.197,2.639-6.644h12.864
		c1.209,2.724,3.87,9.028,4.196,10.717c0.473,2.469-2.874,2.693-4.556,2.693v0.793h14.985v-0.793L44.562,71.212z M19.417,57.312
		L24.755,44.1c0.405,0.022,0.833,0.034,1.254,0.039l0.67,1.918l4.809,11.268L19.417,57.312"/>
	<path clip-path="url(#SVGID_2_)" fill="#DEB408" d="M44.56,71.218c-0.9-0.241-1.688-1.131-2.773-3.898L31.92,43.6l-0.377-0.906
		l-3.138-7.549c-1.227,1.36-3.083,2.543-5.04,3.516l1.31,2.447L24.13,42.49c-0.025-0.007-0.048-0.016-0.072-0.023
		c-0.031,0.507-0.504,1.013-0.534,1.519c0.003,0.001,0.006,0.001,0.009,0.002l-0.011,0.028c0,0.007-0.001,0.013-0.001,0.02
		c0-0.007,0.001-0.013,0.001-0.02l-9.281,23.438c-1.783,3.505-3.667,4.136-5.248,4.23v0.793h11.008v-0.793
		c-3.932,0.012-4.764-2.025-4.404-3.933c0,0,0.135-1.062,0.781-2.835c0.833-2.261,2.127-5.196,2.639-6.643h12.864
		c1.209,2.723,3.87,9.028,4.196,10.716c0.473,2.469-2.874,2.694-4.556,2.694v0.793h14.985v-0.793L44.56,71.218z M19.416,57.318
		l5.338-13.213c0.405,0.021,0.833,0.034,1.254,0.039l0.67,1.918l4.809,11.267L19.416,57.318z"/>
	<path clip-path="url(#SVGID_2_)" fill="#FFFFFF" d="M23.429,43.97c0,0,0.834,0.104,1.332,0.136c0.49,0.031,1.248,0.039,1.248,0.039
		l-0.614-1.402c0,0-0.045,0.011-0.655-0.12c-0.6-0.129-0.682-0.155-0.682-0.155L23.429,43.97z"/>
</g>
<g>
	<path fill="#00285E" d="M80.672,61.679c-0.52-0.561-1.023-0.934-1.51-1.12c-0.487-0.187-0.977-0.28-1.47-0.28
		c-0.733,0-1.396,0.13-1.99,0.391c-0.594,0.26-1.104,0.619-1.53,1.08c-0.427,0.46-0.757,0.996-0.99,1.609
		c-0.233,0.613-0.35,1.273-0.35,1.98c0,0.76,0.117,1.46,0.35,2.1c0.233,0.64,0.563,1.193,0.99,1.66s0.937,0.833,1.53,1.1
		c0.593,0.268,1.256,0.4,1.99,0.4c0.573,0,1.13-0.137,1.67-0.41c0.54-0.273,1.043-0.71,1.51-1.31l2.08,1.479
		c-0.64,0.88-1.42,1.521-2.34,1.92c-0.92,0.4-1.9,0.601-2.94,0.601c-1.093,0-2.097-0.177-3.01-0.53c-0.914-0.354-1.7-0.854-2.36-1.5
		c-0.66-0.646-1.177-1.423-1.55-2.33c-0.374-0.906-0.56-1.913-0.56-3.02c0-1.134,0.187-2.164,0.56-3.091
		c0.373-0.926,0.89-1.716,1.55-2.37c0.66-0.652,1.446-1.156,2.36-1.51c0.913-0.353,1.917-0.529,3.01-0.529
		c0.96,0,1.85,0.17,2.67,0.51c0.82,0.34,1.583,0.917,2.29,1.729L80.672,61.679z"/>
	<path fill="#00285E" d="M83.752,67.719c0-0.76,0.137-1.45,0.41-2.07c0.273-0.62,0.643-1.149,1.11-1.59s1.02-0.78,1.66-1.021
		c0.64-0.239,1.32-0.359,2.04-0.359c0.72,0,1.4,0.12,2.04,0.359c0.64,0.24,1.193,0.58,1.66,1.021s0.837,0.97,1.11,1.59
		c0.273,0.62,0.41,1.311,0.41,2.07s-0.137,1.45-0.41,2.069c-0.273,0.62-0.644,1.15-1.11,1.591c-0.467,0.439-1.02,0.779-1.66,1.02
		c-0.64,0.24-1.32,0.36-2.04,0.36c-0.72,0-1.4-0.12-2.04-0.36s-1.193-0.58-1.66-1.02c-0.467-0.44-0.837-0.971-1.11-1.591
		C83.889,69.169,83.752,68.479,83.752,67.719z M86.152,67.719c0,0.373,0.063,0.733,0.19,1.08c0.126,0.347,0.313,0.653,0.56,0.92
		s0.543,0.479,0.89,0.64s0.74,0.24,1.18,0.24s0.833-0.08,1.18-0.24s0.644-0.373,0.89-0.64s0.433-0.573,0.56-0.92
		c0.126-0.347,0.19-0.707,0.19-1.08s-0.063-0.733-0.19-1.08c-0.127-0.347-0.313-0.653-0.56-0.92s-0.543-0.48-0.89-0.641
		c-0.347-0.159-0.74-0.239-1.18-0.239s-0.833,0.08-1.18,0.239c-0.347,0.16-0.644,0.374-0.89,0.641s-0.433,0.573-0.56,0.92
		C86.215,66.985,86.152,67.346,86.152,67.719z"/>
	<path fill="#00285E" d="M104.992,72.519h-2.28v-1.54h-0.04c-0.227,0.48-0.573,0.896-1.04,1.25s-1.1,0.53-1.9,0.53
		c-0.64,0-1.183-0.104-1.63-0.311c-0.447-0.206-0.81-0.486-1.09-0.84c-0.28-0.353-0.48-0.757-0.6-1.21s-0.18-0.927-0.18-1.42v-6.06
		h2.4v4.859c0,0.268,0.013,0.563,0.04,0.891c0.027,0.326,0.097,0.633,0.21,0.92c0.113,0.286,0.287,0.526,0.52,0.72
		s0.563,0.29,0.99,0.29c0.4,0,0.736-0.066,1.01-0.2c0.273-0.133,0.5-0.313,0.68-0.54s0.31-0.486,0.39-0.78
		c0.08-0.293,0.12-0.6,0.12-0.92v-5.239h2.4V72.519z"/>
	<path fill="#00285E" d="M107.511,62.919h2.4v1.52h0.04c0.267-0.56,0.647-0.993,1.14-1.3s1.06-0.46,1.7-0.46
		c0.146,0,0.29,0.014,0.43,0.04c0.14,0.026,0.283,0.06,0.43,0.1v2.32c-0.2-0.054-0.397-0.097-0.59-0.13
		c-0.193-0.033-0.384-0.05-0.57-0.05c-0.56,0-1.01,0.103-1.35,0.31c-0.34,0.207-0.6,0.443-0.78,0.71s-0.3,0.533-0.36,0.8
		c-0.06,0.268-0.09,0.467-0.09,0.601v5.14h-2.4V62.919z"/>
	<path fill="#00285E" d="M120.211,65.578c-0.467-0.652-1.093-0.979-1.88-0.979c-0.32,0-0.633,0.08-0.94,0.24
		c-0.307,0.16-0.46,0.42-0.46,0.779c0,0.294,0.126,0.507,0.38,0.641c0.253,0.133,0.573,0.247,0.96,0.34
		c0.387,0.094,0.803,0.189,1.25,0.29c0.446,0.1,0.863,0.253,1.25,0.46s0.707,0.49,0.96,0.85c0.253,0.36,0.38,0.854,0.38,1.48
		c0,0.573-0.124,1.057-0.37,1.45s-0.566,0.71-0.96,0.949c-0.393,0.24-0.837,0.414-1.33,0.521c-0.494,0.106-0.987,0.16-1.48,0.16
		c-0.747,0-1.434-0.107-2.06-0.32c-0.627-0.213-1.187-0.6-1.68-1.16l1.6-1.5c0.307,0.347,0.636,0.63,0.99,0.851
		c0.354,0.22,0.783,0.33,1.29,0.33c0.173,0,0.353-0.021,0.54-0.061c0.187-0.04,0.36-0.106,0.52-0.2c0.16-0.093,0.29-0.21,0.39-0.35
		s0.15-0.303,0.15-0.49c0-0.333-0.127-0.58-0.38-0.74c-0.253-0.159-0.574-0.29-0.96-0.39c-0.387-0.1-0.804-0.193-1.25-0.28
		c-0.447-0.086-0.864-0.227-1.25-0.42c-0.387-0.193-0.707-0.463-0.96-0.81c-0.253-0.347-0.38-0.827-0.38-1.44
		c0-0.533,0.11-0.996,0.33-1.39c0.22-0.394,0.51-0.717,0.87-0.97c0.36-0.254,0.773-0.44,1.24-0.561c0.466-0.12,0.94-0.18,1.42-0.18
		c0.64,0,1.273,0.109,1.9,0.33c0.626,0.22,1.133,0.597,1.52,1.13L120.211,65.578z"/>
	<path fill="#00285E" d="M125.691,68.559c0.08,0.72,0.36,1.28,0.84,1.68c0.48,0.4,1.06,0.601,1.74,0.601
		c0.6,0,1.103-0.123,1.51-0.37c0.406-0.247,0.763-0.557,1.07-0.931l1.72,1.301c-0.56,0.693-1.187,1.187-1.88,1.479
		s-1.42,0.44-2.18,0.44c-0.72,0-1.4-0.12-2.04-0.36s-1.193-0.58-1.66-1.02c-0.467-0.44-0.837-0.971-1.11-1.591
		c-0.273-0.619-0.41-1.31-0.41-2.069s0.137-1.45,0.41-2.07c0.273-0.62,0.643-1.149,1.11-1.59s1.02-0.78,1.66-1.021
		c0.64-0.239,1.32-0.359,2.04-0.359c0.667,0,1.276,0.117,1.83,0.35c0.553,0.233,1.026,0.57,1.42,1.01
		c0.393,0.44,0.7,0.984,0.92,1.631s0.33,1.39,0.33,2.229v0.66H125.691z M130.611,66.759c-0.014-0.707-0.233-1.264-0.66-1.67
		c-0.427-0.407-1.02-0.61-1.78-0.61c-0.72,0-1.29,0.207-1.71,0.62c-0.42,0.413-0.677,0.967-0.77,1.66H130.611z"/>
	<path fill="#00285E" d="M150.71,61.679c-0.52-0.561-1.023-0.934-1.51-1.12s-0.977-0.28-1.47-0.28c-0.733,0-1.396,0.13-1.989,0.391
		c-0.594,0.26-1.104,0.619-1.531,1.08c-0.426,0.46-0.756,0.996-0.989,1.609s-0.351,1.273-0.351,1.98c0,0.76,0.117,1.46,0.351,2.1
		s0.563,1.193,0.989,1.66c0.428,0.467,0.938,0.833,1.531,1.1c0.593,0.268,1.256,0.4,1.989,0.4c0.573,0,1.13-0.137,1.671-0.41
		c0.539-0.273,1.043-0.71,1.51-1.31l2.08,1.479c-0.641,0.88-1.42,1.521-2.34,1.92c-0.921,0.4-1.9,0.601-2.941,0.601
		c-1.093,0-2.096-0.177-3.01-0.53c-0.913-0.354-1.699-0.854-2.359-1.5s-1.178-1.423-1.551-2.33c-0.373-0.906-0.56-1.913-0.56-3.02
		c0-1.134,0.187-2.164,0.56-3.091c0.373-0.926,0.891-1.716,1.551-2.37c0.66-0.652,1.446-1.156,2.359-1.51
		c0.914-0.353,1.917-0.529,3.01-0.529c0.961,0,1.851,0.17,2.671,0.51c0.819,0.34,1.583,0.917,2.29,1.729L150.71,61.679z"/>
	<path fill="#00285E" d="M160.271,71.198h-0.061c-0.346,0.547-0.787,0.943-1.318,1.19c-0.535,0.246-1.121,0.37-1.762,0.37
		c-0.439,0-0.869-0.061-1.289-0.181c-0.42-0.119-0.793-0.3-1.12-0.54c-0.327-0.239-0.59-0.539-0.79-0.899s-0.3-0.78-0.3-1.26
		c0-0.521,0.093-0.964,0.28-1.33c0.186-0.367,0.436-0.674,0.75-0.92c0.312-0.247,0.676-0.443,1.09-0.591
		c0.412-0.146,0.843-0.256,1.289-0.329c0.447-0.073,0.896-0.12,1.352-0.141c0.453-0.02,0.879-0.03,1.279-0.03h0.6v-0.26
		c0-0.6-0.207-1.05-0.619-1.35c-0.414-0.3-0.941-0.45-1.58-0.45c-0.508,0-0.98,0.09-1.42,0.271c-0.441,0.18-0.82,0.423-1.141,0.729
		l-1.26-1.26c0.533-0.547,1.156-0.94,1.869-1.181c0.714-0.239,1.451-0.359,2.211-0.359c0.68,0,1.252,0.077,1.719,0.229
		c0.467,0.153,0.854,0.351,1.16,0.591c0.307,0.239,0.543,0.517,0.711,0.829c0.166,0.313,0.287,0.631,0.359,0.95
		c0.074,0.32,0.117,0.63,0.131,0.931c0.012,0.3,0.02,0.563,0.02,0.79v5.52h-2.16V71.198z M160.13,68.219h-0.5
		c-0.332,0-0.707,0.014-1.119,0.04c-0.414,0.026-0.803,0.09-1.17,0.189c-0.367,0.101-0.678,0.247-0.93,0.44
		c-0.254,0.193-0.381,0.463-0.381,0.81c0,0.228,0.051,0.417,0.15,0.57s0.23,0.283,0.391,0.39c0.159,0.107,0.34,0.184,0.539,0.23
		c0.201,0.047,0.4,0.07,0.6,0.07c0.828,0,1.438-0.197,1.83-0.591c0.395-0.393,0.59-0.93,0.59-1.609V68.219z"/>
	<path fill="#00285E" d="M163.69,64.959v-2.04h1.979v-2.78h2.4v2.78h2.64v2.04h-2.64v4.199c0,0.48,0.09,0.86,0.27,1.141
		c0.181,0.279,0.537,0.42,1.07,0.42c0.213,0,0.446-0.023,0.7-0.07c0.253-0.047,0.453-0.123,0.6-0.229v2.02
		c-0.253,0.12-0.563,0.203-0.93,0.25c-0.367,0.047-0.69,0.07-0.97,0.07c-0.641,0-1.164-0.07-1.57-0.21
		c-0.407-0.141-0.727-0.354-0.96-0.641c-0.233-0.286-0.394-0.643-0.48-1.069s-0.13-0.92-0.13-1.48v-4.399H163.69z"/>
	<path fill="#00285E" d="M178.391,71.198h-0.061c-0.347,0.547-0.787,0.943-1.319,1.19c-0.534,0.246-1.12,0.37-1.761,0.37
		c-0.439,0-0.87-0.061-1.29-0.181c-0.42-0.119-0.793-0.3-1.12-0.54c-0.326-0.239-0.59-0.539-0.79-0.899
		c-0.199-0.36-0.3-0.78-0.3-1.26c0-0.521,0.094-0.964,0.28-1.33c0.187-0.367,0.437-0.674,0.75-0.92
		c0.313-0.247,0.677-0.443,1.09-0.591c0.413-0.146,0.844-0.256,1.29-0.329s0.896-0.12,1.351-0.141c0.453-0.02,0.88-0.03,1.279-0.03
		h0.601v-0.26c0-0.6-0.207-1.05-0.62-1.35c-0.414-0.3-0.94-0.45-1.58-0.45c-0.507,0-0.98,0.09-1.42,0.271
		c-0.44,0.18-0.82,0.423-1.141,0.729l-1.26-1.26c0.533-0.547,1.156-0.94,1.87-1.181c0.713-0.239,1.45-0.359,2.21-0.359
		c0.68,0,1.253,0.077,1.72,0.229c0.467,0.153,0.854,0.351,1.16,0.591c0.307,0.239,0.543,0.517,0.71,0.829
		c0.167,0.313,0.287,0.631,0.36,0.95c0.073,0.32,0.116,0.63,0.13,0.931c0.013,0.3,0.02,0.563,0.02,0.79v5.52h-2.159V71.198z
		 M178.25,68.219h-0.5c-0.333,0-0.707,0.014-1.12,0.04s-0.803,0.09-1.17,0.189c-0.366,0.101-0.677,0.247-0.93,0.44
		c-0.254,0.193-0.38,0.463-0.38,0.81c0,0.228,0.05,0.417,0.149,0.57c0.101,0.153,0.23,0.283,0.391,0.39
		c0.16,0.107,0.34,0.184,0.54,0.23s0.399,0.07,0.6,0.07c0.827,0,1.437-0.197,1.83-0.591c0.394-0.393,0.59-0.93,0.59-1.609V68.219z"
		/>
	<path fill="#00285E" d="M182.971,57.398h2.399v15.12h-2.399V57.398z"/>
	<path fill="#00285E" d="M187.45,67.719c0-0.76,0.137-1.45,0.41-2.07s0.644-1.149,1.11-1.59c0.466-0.44,1.02-0.78,1.659-1.021
		c0.641-0.239,1.32-0.359,2.04-0.359c0.721,0,1.4,0.12,2.04,0.359c0.641,0.24,1.193,0.58,1.66,1.021s0.837,0.97,1.11,1.59
		s0.41,1.311,0.41,2.07s-0.137,1.45-0.41,2.069c-0.273,0.62-0.644,1.15-1.11,1.591c-0.467,0.439-1.02,0.779-1.66,1.02
		c-0.64,0.24-1.319,0.36-2.04,0.36c-0.72,0-1.399-0.12-2.04-0.36c-0.64-0.24-1.193-0.58-1.659-1.02
		c-0.467-0.44-0.837-0.971-1.11-1.591C187.587,69.169,187.45,68.479,187.45,67.719z M189.851,67.719c0,0.373,0.062,0.733,0.189,1.08
		s0.313,0.653,0.561,0.92c0.246,0.267,0.543,0.479,0.89,0.64s0.74,0.24,1.18,0.24c0.44,0,0.834-0.08,1.181-0.24
		s0.643-0.373,0.89-0.64s0.434-0.573,0.561-0.92c0.126-0.347,0.189-0.707,0.189-1.08s-0.063-0.733-0.189-1.08
		c-0.127-0.347-0.313-0.653-0.561-0.92s-0.543-0.48-0.89-0.641c-0.347-0.159-0.74-0.239-1.181-0.239c-0.439,0-0.833,0.08-1.18,0.239
		c-0.347,0.16-0.644,0.374-0.89,0.641c-0.247,0.267-0.434,0.573-0.561,0.92S189.851,67.346,189.851,67.719z"/>
	<path fill="#00285E" d="M209.81,62.919v8.739c0,0.867-0.107,1.65-0.32,2.351s-0.543,1.293-0.99,1.779
		c-0.446,0.487-1.01,0.863-1.689,1.131c-0.681,0.267-1.487,0.399-2.42,0.399c-0.894,0-1.74-0.113-2.54-0.34s-1.54-0.64-2.221-1.24
		l1.44-1.96c0.48,0.44,0.98,0.78,1.5,1.021c0.52,0.239,1.12,0.359,1.8,0.359c0.573,0,1.057-0.08,1.45-0.239
		c0.394-0.16,0.707-0.381,0.94-0.66c0.232-0.28,0.399-0.617,0.5-1.01c0.1-0.394,0.149-0.83,0.149-1.311v-0.7h-0.04
		c-0.347,0.467-0.807,0.817-1.38,1.05c-0.573,0.233-1.16,0.351-1.76,0.351c-0.72,0-1.374-0.13-1.96-0.39
		c-0.587-0.261-1.09-0.61-1.51-1.051c-0.421-0.439-0.744-0.96-0.971-1.56c-0.227-0.601-0.34-1.24-0.34-1.92
		c0-0.707,0.106-1.367,0.32-1.98c0.213-0.613,0.526-1.146,0.939-1.6s0.91-0.811,1.49-1.07s1.243-0.39,1.99-0.39
		c0.68,0,1.313,0.133,1.899,0.399c0.587,0.268,1.054,0.694,1.4,1.28h0.04v-1.439H209.81z M204.689,64.839
		c-0.427,0-0.813,0.069-1.16,0.21c-0.347,0.14-0.644,0.333-0.89,0.58c-0.247,0.246-0.44,0.547-0.58,0.899
		c-0.141,0.354-0.21,0.744-0.21,1.17c0,0.387,0.069,0.747,0.21,1.08c0.14,0.334,0.336,0.627,0.59,0.88
		c0.253,0.254,0.553,0.454,0.9,0.601c0.346,0.146,0.72,0.22,1.119,0.22c0.44,0,0.837-0.073,1.19-0.22s0.653-0.344,0.9-0.59
		c0.246-0.247,0.437-0.544,0.569-0.891c0.134-0.347,0.2-0.72,0.2-1.12c0-0.84-0.253-1.52-0.76-2.04
		C206.263,65.099,205.569,64.839,204.689,64.839z"/>
	<path fill="#00285E" d="M225.209,61.398c-0.267-0.387-0.623-0.67-1.069-0.85c-0.447-0.181-0.917-0.271-1.41-0.271
		c-0.294,0-0.577,0.033-0.85,0.101c-0.273,0.066-0.521,0.173-0.74,0.319c-0.22,0.147-0.397,0.337-0.53,0.57
		c-0.134,0.233-0.2,0.51-0.2,0.83c0,0.479,0.167,0.847,0.5,1.1c0.333,0.254,0.747,0.474,1.24,0.66
		c0.493,0.188,1.033,0.367,1.62,0.54c0.587,0.174,1.127,0.413,1.62,0.72c0.493,0.308,0.906,0.714,1.24,1.221
		c0.333,0.507,0.5,1.18,0.5,2.02c0,0.76-0.141,1.424-0.421,1.99c-0.279,0.566-0.656,1.037-1.13,1.41
		c-0.473,0.373-1.023,0.653-1.649,0.84c-0.627,0.187-1.287,0.28-1.98,0.28c-0.88,0-1.727-0.147-2.54-0.44s-1.513-0.786-2.1-1.479
		l1.899-1.841c0.307,0.467,0.711,0.83,1.211,1.091c0.5,0.26,1.029,0.39,1.59,0.39c0.293,0,0.586-0.04,0.88-0.12
		c0.293-0.08,0.56-0.2,0.8-0.36c0.24-0.159,0.434-0.362,0.58-0.609s0.22-0.53,0.22-0.851c0-0.52-0.167-0.92-0.5-1.199
		c-0.333-0.28-0.747-0.517-1.24-0.71s-1.033-0.377-1.619-0.551c-0.587-0.173-1.127-0.41-1.62-0.71c-0.494-0.3-0.907-0.7-1.24-1.2
		c-0.334-0.5-0.5-1.17-0.5-2.01c0-0.732,0.15-1.366,0.45-1.899s0.692-0.977,1.18-1.33c0.486-0.354,1.043-0.617,1.67-0.79
		c0.627-0.174,1.267-0.26,1.92-0.26c0.747,0,1.47,0.113,2.17,0.34s1.33,0.6,1.891,1.12L225.209,61.398z"/>
	<path fill="#00285E" d="M231.249,68.559c0.08,0.72,0.359,1.28,0.84,1.68c0.479,0.4,1.06,0.601,1.74,0.601
		c0.6,0,1.103-0.123,1.51-0.37c0.406-0.247,0.763-0.557,1.07-0.931l1.72,1.301c-0.561,0.693-1.188,1.187-1.88,1.479
		c-0.693,0.293-1.42,0.44-2.181,0.44c-0.72,0-1.399-0.12-2.04-0.36c-0.64-0.24-1.193-0.58-1.659-1.02
		c-0.467-0.44-0.837-0.971-1.11-1.591c-0.273-0.619-0.41-1.31-0.41-2.069s0.137-1.45,0.41-2.07s0.644-1.149,1.11-1.59
		c0.466-0.44,1.02-0.78,1.659-1.021c0.641-0.239,1.32-0.359,2.04-0.359c0.667,0,1.277,0.117,1.83,0.35
		c0.554,0.233,1.027,0.57,1.42,1.01c0.394,0.44,0.7,0.984,0.92,1.631c0.221,0.646,0.33,1.39,0.33,2.229v0.66H231.249z
		 M236.169,66.759c-0.014-0.707-0.233-1.264-0.66-1.67c-0.427-0.407-1.021-0.61-1.78-0.61c-0.72,0-1.29,0.207-1.71,0.62
		s-0.677,0.967-0.77,1.66H236.169z"/>
	<path fill="#00285E" d="M246.609,71.198h-0.061c-0.347,0.547-0.787,0.943-1.319,1.19c-0.534,0.246-1.12,0.37-1.761,0.37
		c-0.439,0-0.87-0.061-1.29-0.181c-0.42-0.119-0.793-0.3-1.12-0.54c-0.326-0.239-0.59-0.539-0.79-0.899
		c-0.199-0.36-0.3-0.78-0.3-1.26c0-0.521,0.094-0.964,0.28-1.33c0.187-0.367,0.437-0.674,0.75-0.92
		c0.313-0.247,0.677-0.443,1.09-0.591c0.413-0.146,0.844-0.256,1.29-0.329s0.896-0.12,1.351-0.141c0.453-0.02,0.88-0.03,1.279-0.03
		h0.601v-0.26c0-0.6-0.207-1.05-0.62-1.35c-0.414-0.3-0.94-0.45-1.58-0.45c-0.507,0-0.98,0.09-1.42,0.271
		c-0.44,0.18-0.82,0.423-1.141,0.729l-1.26-1.26c0.533-0.547,1.156-0.94,1.87-1.181c0.713-0.239,1.45-0.359,2.21-0.359
		c0.68,0,1.253,0.077,1.72,0.229c0.467,0.153,0.854,0.351,1.16,0.591c0.307,0.239,0.543,0.517,0.71,0.829
		c0.167,0.313,0.287,0.631,0.36,0.95c0.073,0.32,0.116,0.63,0.13,0.931c0.013,0.3,0.02,0.563,0.02,0.79v5.52h-2.159V71.198z
		 M246.469,68.219h-0.5c-0.333,0-0.707,0.014-1.12,0.04s-0.803,0.09-1.17,0.189c-0.366,0.101-0.677,0.247-0.93,0.44
		c-0.254,0.193-0.38,0.463-0.38,0.81c0,0.228,0.05,0.417,0.149,0.57c0.101,0.153,0.23,0.283,0.391,0.39
		c0.16,0.107,0.34,0.184,0.54,0.23s0.399,0.07,0.6,0.07c0.827,0,1.437-0.197,1.83-0.591c0.394-0.393,0.59-0.93,0.59-1.609V68.219z"
		/>
	<path fill="#00285E" d="M251.148,62.919h2.399v1.52h0.04c0.267-0.56,0.646-0.993,1.141-1.3c0.493-0.307,1.06-0.46,1.699-0.46
		c0.146,0,0.29,0.014,0.431,0.04c0.14,0.026,0.283,0.06,0.43,0.1v2.32c-0.2-0.054-0.396-0.097-0.59-0.13s-0.384-0.05-0.57-0.05
		c-0.56,0-1.01,0.103-1.35,0.31s-0.601,0.443-0.78,0.71s-0.3,0.533-0.36,0.8c-0.06,0.268-0.09,0.467-0.09,0.601v5.14h-2.399V62.919z
		"/>
	<path fill="#00285E" d="M265.288,65.799c-0.28-0.293-0.573-0.526-0.88-0.7c-0.307-0.173-0.62-0.26-0.94-0.26
		c-0.439,0-0.833,0.08-1.18,0.239c-0.347,0.16-0.644,0.374-0.89,0.641c-0.247,0.267-0.434,0.573-0.561,0.92s-0.189,0.707-0.189,1.08
		s0.062,0.733,0.189,1.08s0.313,0.653,0.561,0.92c0.246,0.267,0.543,0.479,0.89,0.64s0.74,0.24,1.18,0.24
		c0.373,0,0.721-0.076,1.04-0.23c0.32-0.152,0.594-0.376,0.82-0.67l1.6,1.721c-0.239,0.239-0.517,0.446-0.829,0.619
		c-0.313,0.174-0.631,0.313-0.95,0.421c-0.32,0.106-0.627,0.183-0.92,0.229c-0.294,0.047-0.547,0.07-0.761,0.07
		c-0.72,0-1.399-0.12-2.04-0.36c-0.64-0.24-1.193-0.58-1.659-1.02c-0.467-0.44-0.837-0.971-1.11-1.591
		c-0.273-0.619-0.41-1.31-0.41-2.069s0.137-1.45,0.41-2.07s0.644-1.149,1.11-1.59c0.466-0.44,1.02-0.78,1.659-1.021
		c0.641-0.239,1.32-0.359,2.04-0.359c0.613,0,1.23,0.117,1.851,0.35c0.62,0.233,1.163,0.604,1.63,1.11L265.288,65.799z"/>
	<path fill="#00285E" d="M270.568,64.259h0.04c0.187-0.4,0.517-0.764,0.99-1.09c0.473-0.327,1.083-0.49,1.83-0.49
		c0.64,0,1.183,0.106,1.63,0.32c0.446,0.213,0.81,0.493,1.09,0.84s0.48,0.746,0.601,1.199c0.119,0.454,0.18,0.928,0.18,1.421v6.06
		h-2.4v-4.86c0-0.267-0.013-0.562-0.04-0.89c-0.026-0.326-0.097-0.633-0.21-0.92s-0.29-0.526-0.529-0.72
		c-0.24-0.193-0.567-0.29-0.98-0.29c-0.4,0-0.737,0.066-1.01,0.199c-0.273,0.134-0.5,0.313-0.681,0.54
		c-0.18,0.228-0.31,0.487-0.39,0.78c-0.08,0.294-0.12,0.601-0.12,0.92v5.24h-2.399v-15.12h2.399V64.259z"/>
</g>
</svg>
